<?xml version="1.0" encoding="utf-8"?>
<!-- Generated by IcoMoon.io -->
<svg version="1.1" xmlns="http://www.w3.org/2000/svg" xmlns:xlink="http://www.w3.org/1999/xlink" width="752"
     height="108" viewBox="0 0 752 108">
    <svg id="icon-chevron-down" viewBox="0 0 24 24">
        <path
            d="M18.7 11.3l-5-5c-0.4-0.4-1-0.4-1.4 0s-0.4 1 0 1.4l4.3 4.3-4.3 4.3c-0.4 0.4-0.4 1 0 1.4 0.2 0.2 0.5 0.3 0.7 0.3s0.5-0.1 0.7-0.3l5-5c0.4-0.4 0.4-1 0-1.4z"></path>
    </svg>


    <svg id="icon-chevrons-right" viewBox="0 0 24 24">
        <path
            d="M18.7 11.3l-5-5c-0.4-0.4-1-0.4-1.4 0s-0.4 1 0 1.4l4.3 4.3-4.3 4.3c-0.4 0.4-0.4 1 0 1.4 0.2 0.2 0.5 0.3 0.7 0.3s0.5-0.1 0.7-0.3l5-5c0.4-0.4 0.4-1 0-1.4z"></path>
        <path
            d="M11.7 11.3l-5-5c-0.4-0.4-1-0.4-1.4 0s-0.4 1 0 1.4l4.3 4.3-4.3 4.3c-0.4 0.4-0.4 1 0 1.4 0.2 0.2 0.4 0.3 0.7 0.3s0.5-0.1 0.7-0.3l5-5c0.4-0.4 0.4-1 0-1.4z"></path>
    </svg>
    <svg id="icon-align-bottom" viewBox="0 0 20 20">
        <path
            d="M13 11h-2v-8h-2v8h-2l3 3 3-3zM17.4 15h-14.8c-0.552 0-0.6 0.447-0.6 1s0.048 1 0.6 1h14.8c0.552 0 0.6-0.447 0.6-1s-0.048-1-0.6-1z"></path>
    </svg>
    <svg id="icon-back-in-time" viewBox="0 0 20 20">
        <path
            d="M11 1.799c-4.445 0-8.061 3.562-8.169 7.996v0.205h-2.372l3.594 3.894 3.494-3.894h-2.672v-0.205c0.107-3.303 2.808-5.945 6.125-5.945 3.386 0 6.131 2.754 6.131 6.15s-2.745 6.15-6.131 6.15c-1.357 0-2.611-0.445-3.627-1.193l-1.406 1.504c1.388 1.088 3.135 1.738 5.033 1.738 4.515 0 8.174-3.67 8.174-8.199s-3.659-8.201-8.174-8.201zM10 5v5c0 0.13 0.027 0.26 0.077 0.382s0.124 0.233 0.216 0.325l3.2 3.2c0.283-0.183 0.55-0.389 0.787-0.628l-2.28-2.279v-6h-2z"></path>
    </svg>
    <svg id="icon-database" viewBox="0 0 20 20">
        <path
            d="M16.726 12.641c-0.843 1.363-3.535 2.361-6.726 2.361s-5.883-0.998-6.727-2.361c-0.178-0.29-0.273-0.135-0.273 0.007 0 0.144 0 2.002 0 2.002 0 1.94 3.134 3.95 7 3.95s7-2.010 7-3.949c0 0 0-1.858 0-2.002s-0.096-0.298-0.274-0.008zM16.737 7.525c-0.83 1.205-3.532 2.090-6.737 2.090s-5.908-0.885-6.738-2.090c-0.171-0.248-0.262-0.113-0.262-0.002 0 0.113 0 2.357 0 2.357 0 1.762 3.134 3.189 7 3.189s7-1.428 7-3.189c0 0 0-2.244 0-2.357 0-0.111-0.092-0.246-0.263 0.002zM10 1c-3.866 0-7 1.18-7 2.633v1.26c0 1.541 3.134 2.791 7 2.791s7-1.25 7-2.791v-1.26c0-1.453-3.134-2.633-7-2.633z"></path>
    </svg>
    <svg id="icon-eye" viewBox="0 0 20 20">
        <path
            d="M10 4.4c-6.561 0-10 4.832-10 5.6 0 0.766 3.439 5.6 10 5.6s10-4.834 10-5.6c0-0.768-3.44-5.6-10-5.6zM10 14.307c-2.455 0-4.445-1.928-4.445-4.307s1.99-4.309 4.445-4.309c2.455 0 4.444 1.93 4.444 4.309s-1.989 4.307-4.444 4.307zM10 10c-0.407-0.447 0.663-2.154 0-2.154-1.228 0-2.223 0.965-2.223 2.154s0.995 2.154 2.223 2.154c1.227 0 2.223-0.965 2.223-2.154 0-0.547-1.877 0.379-2.223 0z"></path>
    </svg>
    <svg id="icon-graduation-cap" viewBox="0 0 20 20">
        <path
            d="M3.302 12.238c0.464 1.879 1.054 2.701 3.022 3.562 1.969 0.86 2.904 1.8 3.676 1.8s1.648-0.822 3.616-1.684c1.969-0.861 1.443-1.123 1.907-3.002l-5.523 2.686-6.698-3.362zM19.511 7.336l-8.325-4.662c-0.652-0.365-1.72-0.365-2.372 0l-8.326 4.662c-0.652 0.365-0.652 0.963 0 1.328l8.325 4.662c0.652 0.365 1.72 0.365 2.372 0l5.382-3.014-5.836-1.367c-0.225 0.055-0.472 0.086-0.731 0.086-1.052 0-1.904-0.506-1.904-1.131 0-0.627 0.853-1.133 1.904-1.133 0.816 0 1.51 0.307 1.78 0.734l6.182 2.029 1.549-0.867c0.651-0.364 0.651-0.962 0-1.327zM16.967 16.17c-0.065 0.385 1.283 1.018 1.411-0.107 0.579-5.072-0.416-6.531-0.416-6.531l-1.395 0.781c0-0.001 1.183 1.125 0.4 5.857z"></path>
    </svg>
    <svg id="icon-key" viewBox="0 0 20 20">
        <path
            d="M17.691 4.725c-0.503-2.977-3.22-4.967-6.069-4.441s-5.256 2.816-4.753 5.795c0.107 0.641 0.408 1.644 0.763 2.365l-5.175 7.723c-0.191 0.285-0.299 0.799-0.242 1.141l0.333 1.971c0.058 0.342 0.372 0.572 0.7 0.514l1.516-0.281c0.328-0.059 0.744-0.348 0.924-0.639l2.047-3.311 0.018-0.022 1.386-0.256 2.39-3.879c0.785 0.139 1.912 0.092 2.578-0.031 2.848-0.526 4.087-3.67 3.584-6.649zM15.166 6.252c-0.784 1.17-1.584 0.346-2.703-0.475-1.119-0.818-2.135-1.322-1.352-2.492s2.326-1.455 3.447-0.635c1.12 0.819 1.391 2.432 0.608 3.602z"></path>
    </svg>
    <svg id="icon-location-pin" viewBox="0 0 20 20">
        <path
            d="M10 2.009c-2.762 0-5 2.229-5 4.99 0 4.774 5 11 5 11s5-6.227 5-11c0-2.76-2.238-4.99-5-4.99zM10 9.76c-1.492 0-2.7-1.209-2.7-2.7s1.208-2.7 2.7-2.7c1.49 0 2.699 1.209 2.699 2.7s-1.209 2.7-2.699 2.7z"></path>
    </svg>
    <svg id="icon-magnifying-glass" viewBox="0 0 20 20">
        <path
            d="M17.545 15.467l-3.779-3.779c0.57-0.935 0.898-2.035 0.898-3.21 0-3.417-2.961-6.377-6.378-6.377s-6.186 2.769-6.186 6.186c0 3.416 2.961 6.377 6.377 6.377 1.137 0 2.2-0.309 3.115-0.844l3.799 3.801c0.372 0.371 0.975 0.371 1.346 0l0.943-0.943c0.371-0.371 0.236-0.84-0.135-1.211zM4.004 8.287c0-2.366 1.917-4.283 4.282-4.283s4.474 2.107 4.474 4.474c0 2.365-1.918 4.283-4.283 4.283s-4.473-2.109-4.473-4.474z"></path>
    </svg>
    <svg id="icon-mail" viewBox="0 0 20 20">
        <path
            d="M1.574 5.286c0.488 0.262 7.248 3.894 7.5 4.029s0.578 0.199 0.906 0.199c0.328 0 0.654-0.064 0.906-0.199s7.012-3.767 7.5-4.029c0.489-0.263 0.951-1.286 0.054-1.286h-16.919c-0.897 0-0.435 1.023 0.053 1.286zM18.613 7.489c-0.555 0.289-7.387 3.849-7.727 4.027s-0.578 0.199-0.906 0.199-0.566-0.021-0.906-0.199-7.133-3.739-7.688-4.028c-0.39-0.204-0.386 0.035-0.386 0.219s0 7.293 0 7.293c0 0.42 0.566 1 1 1h16c0.434 0 1-0.58 1-1 0 0 0-7.108 0-7.292s0.004-0.423-0.387-0.219z"></path>
    </svg>
    <svg id="icon-mobile" viewBox="0 0 20 20">
        <path
            d="M14.004 0h-8.008c-1.102 0-1.996 0.894-1.996 1.996v16.007c0 1.103 0.894 1.997 1.996 1.997h8.007c1.103 0 1.997-0.894 1.997-1.996v-16.008c0-1.102-0.894-1.996-1.996-1.996zM10 19c-0.69 0-1.25-0.447-1.25-1s0.56-1 1.25-1 1.25 0.447 1.25 1-0.56 1-1.25 1zM14 16h-8v-14h8v14z"></path>
    </svg>
    <svg id="icon-paper-plane" viewBox="0 0 20 20">
        <path
            d="M18.64 2.634c-0.344 0.121-17.321 6.104-17.656 6.222-0.284 0.1-0.347 0.345-0.010 0.479 0.401 0.161 3.796 1.521 3.796 1.521v0l2.25 0.901c0 0 10.838-7.958 10.984-8.066 0.148-0.108 0.318 0.095 0.211 0.211s-7.871 8.513-7.871 8.513v0.002l-0.452 0.503 0.599 0.322c0 0 4.65 2.504 4.982 2.682 0.291 0.156 0.668 0.027 0.752-0.334 0.099-0.426 2.845-12.261 2.906-12.525 0.079-0.343-0.148-0.552-0.491-0.431zM7 17.162c0 0.246 0.139 0.315 0.331 0.141 0.251-0.229 2.85-2.561 2.85-2.561l-3.181-1.644v4.064z"></path>
    </svg>
    <svg id="icon-arrow-up2" viewBox="0 0 32 32">
        <path
            d="M27.414 12.586l-10-10c-0.781-0.781-2.047-0.781-2.828 0l-10 10c-0.781 0.781-0.781 2.047 0 2.828s2.047 0.781 2.828 0l6.586-6.586v19.172c0 1.105 0.895 2 2 2s2-0.895 2-2v-19.172l6.586 6.586c0.39 0.39 0.902 0.586 1.414 0.586s1.024-0.195 1.414-0.586c0.781-0.781 0.781-2.047 0-2.828z"></path>
    </svg>
    <svg id="icon-arrow-right2" viewBox="0 0 32 32">
        <path
            d="M19.414 27.414l10-10c0.781-0.781 0.781-2.047 0-2.828l-10-10c-0.781-0.781-2.047-0.781-2.828 0s-0.781 2.047 0 2.828l6.586 6.586h-19.172c-1.105 0-2 0.895-2 2s0.895 2 2 2h19.172l-6.586 6.586c-0.39 0.39-0.586 0.902-0.586 1.414s0.195 1.024 0.586 1.414c0.781 0.781 2.047 0.781 2.828 0z"></path>
    </svg>
    <svg id="icon-arrow-down2" viewBox="0 0 32 32">
        <path
            d="M27.414 19.414l-10 10c-0.781 0.781-2.047 0.781-2.828 0l-10-10c-0.781-0.781-0.781-2.047 0-2.828s2.047-0.781 2.828 0l6.586 6.586v-19.172c0-1.105 0.895-2 2-2s2 0.895 2 2v19.172l6.586-6.586c0.39-0.39 0.902-0.586 1.414-0.586s1.024 0.195 1.414 0.586c0.781 0.781 0.781 2.047 0 2.828z"></path>
    </svg>
    <svg id="icon-arrow-left2" viewBox="0 0 32 32">
        <path
            d="M12.586 27.414l-10-10c-0.781-0.781-0.781-2.047 0-2.828l10-10c0.781-0.781 2.047-0.781 2.828 0s0.781 2.047 0 2.828l-6.586 6.586h19.172c1.105 0 2 0.895 2 2s-0.895 2-2 2h-19.172l6.586 6.586c0.39 0.39 0.586 0.902 0.586 1.414s-0.195 1.024-0.586 1.414c-0.781 0.781-2.047 0.781-2.828 0z"></path>
    </svg>
    <svg id="icon-bell" viewBox="0 0 32 32">
        <g transform="translate(0.000000,512.000000) scale(0.100000,-0.100000)">
            <path d="M152.3,5103.1c-8.2-2-16.2-7.8-19.8-14.4c-3.8-6.7-4.5-15.7-1.7-22.2c0.9-2.1,1-3.1,0.5-3.2c-5.2-1.3-12.4-4-18.1-6.6
            c-19.5-9-33.8-23.5-42-42.4c-5.1-11.9-10.6-34.2-13.6-55.8c-3.6-25.6-9.6-42.9-18.5-52.9c-1.6-1.9-6.3-5.9-10.5-8.9
            c-9.2-6.7-12-9.4-14.5-14.1c-2.9-5.6-4.1-11.4-4.1-19.8c0-11.1,2.7-17.2,9.1-20.2c2.5-1.2,3.4-1.2,50.9-1.4l48.3-0.1l0.7-4.6
            c1.5-9,5-15.5,11.9-21.8c4.9-4.4,9.6-7.1,16.3-9.3c4.1-1.4,5.7-1.5,12.8-1.5c7.1,0,8.7,0.2,12.8,1.5c12.9,4.2,22.2,12.6,26.2,23.9
            c0.9,2.4,1.8,6,2.1,8l0.5,3.7l48.3,0.1c47.6,0.2,48.5,0.2,51,1.4c3.4,1.6,6.5,5.3,7.9,9.5c1.7,4.9,1.5,17.5-0.3,23.7
            c-2.7,9-5.6,12.4-17.2,20.9c-4.3,3.1-9,7-10.6,8.9c-8.6,9.8-15.4,29.3-18.3,52.9c-2.3,17.8-8.1,42.7-12.6,53.8
            c-9.8,23.8-29.7,41.4-55.9,49.5c-3.7,1.1-5.6,2-5.4,2.5c1.4,3.9,2.6,8.9,2.6,11.1C191.3,5093.7,171.6,5107.8,152.3,5103.1z
            M164.2,5084.5c4.2-1.6,6.9-6.3,6-10.6c-0.6-2.8-4.7-6.6-7.8-7.1c-3.8-0.6-6.7,0.2-9.5,2.7
            C144.8,5076.8,153.6,5088.5,164.2,5084.5z M174.7,5046.9c12.2-1.8,23.6-6.2,33.1-12.6c10.6-7.3,18.6-17.7,23.4-30.9
            c4.1-11.4,8.7-31.9,11-49.8c1.7-13.6,3.8-21.9,8.3-34.6c6-17,13.2-26.5,28.1-37c3.8-2.7,7.3-5.6,8-6.4c1.4-2.1,3-8.2,3-12.2v-3.4
            H160H30.2l0.4,5.1c0.4,5.5,1.7,9.6,3.6,11.5c0.6,0.6,3.4,2.7,6.1,4.6c18.4,12.7,25.6,23.7,33.2,50.7c2.1,7.6,3.2,13.1,5.2,28.5
            c1.9,13.8,7.5,36.9,11,45.6c9.5,22.8,28.6,36.7,56,41C152.6,5047.9,167.5,5047.9,174.7,5046.9z M180.5,4838.8
            c-1.1-6.2-5.4-11.4-11.6-14.4c-2.9-1.4-4.2-1.6-8.9-1.6c-5.1,0-5.8,0.2-9.6,2c-5.9,2.9-9.8,7.9-10.9,14l-0.5,2.5H160h20.9
            L180.5,4838.8z"/>
        </g>
    </svg>

    <svg id="calendar" viewBox="0 0 85 83">
        <g>
            <g>
                <g>
                    <path
                        d="M2.18,2.17v20.02v4v53.98h81V26.19v-4V2.17H2.18z M79.18,76.17h-73V26.19h73V76.17z M6.18,22.19V6.17h73v16.02H6.18z"/>
                </g>
            </g>
            <g>
                <rect x="15.32" y="35.28" width="10" height="10.12"/>
            </g>
            <g>
                <rect x="15.32" y="54.28" width="10" height="10.12"/>
            </g>
            <g>
                <rect x="36.32" y="35.28" width="10" height="10.12"/>
            </g>
            <g>
                <rect x="36.32" y="54.28" width="10" height="10.12"/>
            </g>
            <g>
                <rect x="57.32" y="35.28" width="10" height="10.12"/>
            </g>
            <g>
                <rect x="57.32" y="54.28" width="10" height="10.12"/>
            </g>
        </g>
    </svg>
    <svg id="no-icon" viewBox="35 20 440 470">
        <g>
            <path class="st0" d="M402.9,144.6H109.1c-5.6,0-10.1,4.5-10.1,10.1v202.6c0,5.6,4.5,10.1,10.1,10.1h293.7c5.6,0,10.1-4.5,10.1-10.1
		V154.7C413,149.1,408.5,144.6,402.9,144.6z M402.9,154.7v170.1L295,217c-2-2-5.2-2-7.2,0L240.8,264L214,237.2c-2-2-5.2-2-7.2,0
		l-97.7,97.7V154.7L402.9,154.7z M109.1,357.3v-8L210.4,248l57.2,57.2c2,1.9,5.2,1.9,7.2-0.1c1.9-2,1.9-5.1,0-7L248,271.2l43.5-43.5
		l111.4,111.4v18.2H109.1z"/>
            <path class="st0" d="M284.9,308.1c-2-1.9-5.2-1.9-7.2,0.1c-1.9,2-1.9,5.1,0,7l5.1,5.1c2,1.9,5.2,1.9,7.2-0.1c1.9-2,1.9-5.1,0-7
		L284.9,308.1z"/>
            <path class="st0" d="M210.4,220.5c14,0,25.3-11.3,25.3-25.3c0-14-11.3-25.3-25.3-25.3s-25.3,11.3-25.3,25.3
		C185.1,209.2,196.4,220.5,210.4,220.5z M210.4,180c8.4,0,15.2,6.8,15.2,15.2c0,8.4-6.8,15.2-15.2,15.2c-8.4,0-15.2-6.8-15.2-15.2
		C195.2,186.8,202,180,210.4,180z"/>
            <path class="st0"
                  d="M321.8,175h5.1c2.8,0,5.1-2.3,5.1-5.1s-2.3-5.1-5.1-5.1h-5.1c-2.8,0-5.1,2.3-5.1,5.1S319,175,321.8,175z"/>
            <path class="st0"
                  d="M342.1,175h45.6c2.8,0,5.1-2.3,5.1-5.1s-2.3-5.1-5.1-5.1h-45.6c-2.8,0-5.1,2.3-5.1,5.1S339.3,175,342.1,175z"
            />
        </g>
        <rect fill="none" stroke-miterlimit="10" x="28" y="28" class="st1" width="456" height="456"/>
    </svg>

    <svg id="icon-chart" viewBox="0 0 512 512">
        <path d="M76,240c12.1,0,23.1-4.9,31.1-12.7l44.4,22.2c-0.2,1.8-0.6,3.6-0.6,5.5c0,24.8,20.2,45,45,45s45-20.2,45-45
        c0-6.9-1.7-13.4-4.5-19.3l60.2-60.2c5.9,2.8,12.4,4.5,19.3,4.5c24.8,0,45-20.2,45-45c0-4.7-0.9-9.1-2.2-13.3l52.3-39.2
        c7.1,4.8,15.7,7.6,24.9,7.6c24.8,0,45-20.2,45-45S460.8,0,436,0s-45,20.2-45,45c0,4.7,0.9,9.1,2.2,13.3l-52.3,39.2
        c-7.1-4.8-15.7-7.6-24.9-7.6c-24.8,0-45,20.2-45,45c0,6.9,1.7,13.4,4.5,19.3l-60.2,60.2c-5.9-2.8-12.4-4.5-19.3-4.5
        c-12.1,0-23.1,4.9-31.1,12.7l-44.4-22.2c0.2-1.8,0.6-3.6,0.6-5.5c0-24.8-20.2-45-45-45s-45,20.2-45,45S51.2,240,76,240z"/>
        <path d="M497,482h-16V165c0-8.3-6.7-15-15-15h-60c-8.3,0-15,6.7-15,15v317h-30V255c0-8.3-6.7-15-15-15h-60c-8.3,0-15,6.7-15,15v227
        h-30V375c0-8.3-6.7-15-15-15h-60c-8.3,0-15,6.7-15,15v107h-30V315c0-8.3-6.7-15-15-15H46c-8.3,0-15,6.7-15,15v167H15
        c-8.3,0-15,6.7-15,15s6.7,15,15,15h482c8.3,0,15-6.7,15-15S505.3,482,497,482z"/>
    </svg>

    <svg id="icon-map" version="1.1" xmlns="http://www.w3.org/2000/svg" viewBox="0 0 512 512">
        <g>
            <path d="M416,48c-44.2,0-80,35.8-80,80c0,11.9,2.6,23.3,7.3,33.4L416,304l72.7-142.6c4.7-10.2,7.3-21.5,7.3-33.4
		C496,83.8,460.2,48,416,48z M416,176c-26.5,0-48-21.5-48-48s21.5-48,48-48s48,21.5,48,48S442.5,176,416,176z M439.9,327.5
		l29.1,58.2l-73.8,36.9l-24.8-123.8l4.2-4.2l0.4-0.4l-15.3-30L352,272l-96-64l-96,64l-64-64L0,400l128,64l128-64l128,64l128-64
		l-54-108L439.9,327.5z M116.8,422.6l-73.8-36.9L104.8,262l32.6,32.6l4.2,4.2L116.8,422.6z M240,372.2L150.5,417l23.1-115.6l4.1-2.8
		l62.3-41.5V372.2z M272,372.2V257.1l62.3,41.5l4.1,2.8L361.5,417L272,372.2z"/>
        </g>
    </svg>

    <svg id="icon-table" version="1.1" xmlns="http://www.w3.org/2000/svg" viewBox="0 0 410.5 410.5">
        <g>
            <path d="M388.8,13H21.7C9.7,13,0,22.7,0,34.7v341.1c0,12,9.7,21.7,21.7,21.7h367.1c12,0,21.7-9.7,21.7-21.7V34.7
		C410.5,22.7,400.8,13,388.8,13z M77.3,371.5h-60v-51h60V371.5z M77.3,307.5h-60v-65h60V307.5z M77.3,229.5h-60v-60.7h60V229.5z
		 M77.3,155.7h-60v-53.1h60V155.7z M161.9,371.5H90.3v-51h71.6V371.5z M161.9,307.5H90.3v-65h71.6V307.5z M161.9,229.5H90.3v-60.7
		h71.6V229.5z M161.9,155.7H90.3v-53.1h71.6V155.7z M239.9,371.5h-65v-51h65V371.5z M239.9,307.5h-65v-65h65V307.5z M239.9,229.5
		h-65v-60.7h65V229.5z M239.9,155.7h-65v-53.1h65V155.7z M313.6,371.5h-60.7v-51h60.7V371.5z M313.6,307.5h-60.7v-65h60.7V307.5z
		 M313.6,229.5h-60.7v-60.7h60.7V229.5z M313.6,155.7h-60.7v-53.1h60.7V155.7z M393.1,371.5h-66.5v-51h66.5L393.1,371.5L393.1,371.5
		L393.1,371.5z M393.1,307.5h-66.5v-65h66.5L393.1,307.5L393.1,307.5z M393.1,229.5h-66.5v-60.7h66.5L393.1,229.5L393.1,229.5
		L393.1,229.5z M393.1,155.7h-66.5v-53.1h66.5L393.1,155.7L393.1,155.7z"/>
        </g>
    </svg>
    <svg id="icon-academy-od" viewBox="0 0 24 24">
        <path d="M18.0593 11.57H20.0693V0L0.0693359 20H11.6293V18H4.89934L18.0593 4.83V11.57ZM23.8393 20.32L22.7693 19.49L22.7693 19.49C22.7893 19.33 22.8093 19.17 22.8093 19C22.8093 18.83 22.7993 18.67 22.7693 18.51L23.8293 17.68C23.9193 17.6 23.9493 17.47 23.8893 17.36L22.8893 15.63C22.8293 15.52 22.6993 15.48 22.5793 15.52L21.3393 16.02C21.0793 15.82 20.7993 15.65 20.4893 15.53L20.2993 14.21C20.2893 14.09 20.1793 14 20.0593 14H18.0593C17.9393 14 17.8293 14.09 17.8093 14.21L17.6193 15.53C17.3193 15.66 17.0293 15.82 16.7693 16.02L15.5293 15.52C15.4193 15.48 15.2893 15.52 15.2193 15.63L14.2193 17.36C14.1593 17.47 14.1793 17.6 14.2793 17.68L15.3393 18.51C15.3193 18.67 15.3093 18.83 15.3093 19C15.3093 19.17 15.3193 19.33 15.3393 19.49L14.2793 20.32C14.1893 20.4 14.1593 20.53 14.2193 20.64L15.2193 22.37C15.2793 22.48 15.4093 22.52 15.5293 22.48L16.7693 21.98C17.0293 22.18 17.3093 22.35 17.6193 22.47L17.8093 23.79C17.8293 23.91 17.9293 24 18.0593 24H20.0593C20.1793 24 20.2893 23.91 20.3093 23.79L20.4993 22.47C20.7993 22.34 21.0893 22.18 21.3393 21.98L22.5893 22.48C22.6993 22.52 22.8293 22.48 22.8993 22.37L23.8993 20.64C23.9593 20.53 23.9293 20.4 23.8393 20.32ZM17.5593 19C17.5593 19.83 18.2293 20.5 19.0593 20.5C19.8893 20.5 20.5593 19.83 20.5593 19C20.5593 18.17 19.8893 17.5 19.0593 17.5C18.2293 17.5 17.5593 18.17 17.5593 19Z" />
    </svg>
    <svg id="icon-lab-od" viewBox="0 0 16 20">
        <path d="M8 0.344971L13.66 5.99497C15.22 7.55497 16 9.63497 16 11.635C16 13.635 15.22 15.745 13.66 17.305C12.1 18.865 10.05 19.655 8 19.655C5.95 19.655 3.9 18.865 2.34 17.305C0.78 15.745 0 13.635 0 11.635C0 9.63497 0.78 7.55497 2.34 5.99497L8 0.344971ZM3.76 7.59497C2.62 8.72497 2.01 9.99497 2 11.995H14C13.99 9.99497 13.38 8.76497 12.24 7.64497L8 3.26497L3.76 7.59497Z" />
    </svg>
    <svg id="icon-mydashboard" viewBox="0 0 22 18">
        <path d="M2,0h18c1.1,0,2,0.9,2,2v12c0,1.1-0.9,2-2,2h-5v2H7v-2H2c-1.1,0-2-0.9-2-2V2C0,0.9,0.9,0,2,0z M2,14h18V2H2V14z M18,5H7v2h11V5z M7,9h11v2H7V9z M6,5H4v2h2V5z M4,9h2v2H4V9z"/>
    </svg>
    <svg id="icon-followed-objects" viewBox="0 0 18 18">
        <path d="M12.7549 11.255H11.9649L11.6849 10.985C12.6649 9.845 13.2549 8.365 13.2549 6.755C13.2549 3.165 10.3449 0.255005 6.75488 0.255005C3.16488 0.255005 0.254883 3.165 0.254883 6.755C0.254883 10.345 3.16488 13.255 6.75488 13.255C8.36488 13.255 9.84488 12.665 10.9849 11.685L11.2549 11.965V12.755L16.2549 17.745L17.7449 16.255L12.7549 11.255ZM6.75488 11.255C4.26488 11.255 2.25488 9.245 2.25488 6.755C2.25488 4.26501 4.26488 2.255 6.75488 2.255C9.24488 2.255 11.2549 4.26501 11.2549 6.755C11.2549 9.245 9.24488 11.255 6.75488 11.255ZM6.25488 6.255V4.255H7.25488V6.255H9.25488V7.255H7.25488V9.255H6.25488V7.255H4.25488V6.255H6.25488Z" />
    </svg>
    <svg id="icon-followed-datasets" viewBox="0 0 23 23" xmlns="http://www.w3.org/2000/svg">
        <path fill-rule="evenodd" clip-rule="evenodd" d="M22.375 10.2917V7.875H19.9583V5.45833C19.9583 4.12917 18.8708 3.04167 17.5417 3.04167H15.125V0.625H12.7083V3.04167H10.2917V0.625H7.875V3.04167H5.45833C4.12917 3.04167 3.04167 4.12917 3.04167 5.45833V7.875H0.625V10.2917H3.04167V12.7083H0.625V15.125H3.04167V17.5417C3.04167 18.8708 4.12917 19.9583 5.45833 19.9583H7.875V22.375H10.2917V19.9583H12.7083V22.375H15.125V19.9583H17.5417C18.8708 19.9583 19.9583 18.8708 19.9583 17.5417V15.125H22.375V12.7083H19.9583V10.2917H22.375ZM7.875 7.875H15.125V15.125H7.875V7.875ZM10.2917 12.7083H12.7083V10.2917H10.2917V12.7083ZM5.45833 17.5417H17.5417V5.45833H5.45833V17.5417Z" />
    </svg>
    <svg id="icon-followed-queries" viewBox="0 0 30 20" >
        <g>
        <path d="M21.9649 15.2549H22.7549L27.7449 20.2549L26.2549 21.7449L21.2549 16.7549V15.9649L20.9849 15.6849C19.8449 16.6649 18.3649 17.2549 16.7549 17.2549C13.1649 17.2549 10.2549 14.3449 10.2549 10.7549C10.2549 7.16488 13.1649 4.25488 16.7549 4.25488C20.3449 4.25488 23.2549 7.16488 23.2549 10.7549C23.2549 12.3649 22.6649 13.8449 21.6849 14.9849L21.9649 15.2549ZM12.2549 10.7549C12.2549 13.2449 14.2649 15.2549 16.7549 15.2549C19.2449 15.2549 21.2549 13.2449 21.2549 10.7549C21.2549 8.26488 19.2449 6.25488 16.7549 6.25488C14.2649 6.25488 12.2549 8.26488 12.2549 10.7549Z" />
        <rect x="4" width="16" height="2"/>
        <rect x="4" y="4" width="7" height="2"/>
        <rect x="4" y="8" width="5" height="2"/>
        <rect x="4" y="12" width="5" height="2"/>
        </g>
    </svg>

    <svg id="icon-clock" viewBox="0 0 19 19">
        <path d="M9.50065 1.58325C5.14648 1.58325 1.58398 5.14575 1.58398 9.49992C1.58398 13.8541 5.14648 17.4166 9.50065 17.4166C13.8548 17.4166 17.4173 13.8541 17.4173 9.49992C17.4173 5.14575 13.8548 1.58325 9.50065 1.58325ZM9.50065 15.8333C6.0094 15.8333 3.16732 12.9912 3.16732 9.49992C3.16732 6.00867 6.0094 3.16659 9.50065 3.16659C12.9919 3.16659 15.834 6.00867 15.834 9.49992C15.834 12.9912 12.9919 15.8333 9.50065 15.8333ZM8.70898 5.54158H9.89648V9.65825L13.459 11.7958L12.8257 12.8249L8.70898 10.2916V5.54158Z" />
    </svg>

    <svg id="icon-new-data-proposal" viewBox="0 0 18 18">
        <path fill-rule="evenodd" clip-rule="evenodd" d="M17 0H1C0.45 0 0 0.45 0 1V7C0 7.55 0.45 8 1 8H17C17.55 8 18 7.55 18 7V1C18 0.45 17.55 0 17 0ZM2 6H16V2H2V6ZM1 10H17C17.55 10 18 10.45 18 11V17C18 17.55 17.55 18 17 18H1C0.45 18 0 17.55 0 17V11C0 10.45 0.45 10 1 10ZM16 12H2V16H16V12ZM4 15.5C3.18 15.5 2.5 14.83 2.5 14C2.5 13.17 3.18 12.5 4 12.5C4.82 12.5 5.5 13.17 5.5 14C5.5 14.83 4.83 15.5 4 15.5ZM2.5 4C2.5 4.83 3.18 5.5 4 5.5C4.83 5.5 5.5 4.82 5.5 4C5.5 3.18 4.82 2.5 4 2.5C3.18 2.5 2.5 3.17 2.5 4Z"/>
    </svg>

    <svg id="icon-meetings" viewBox="0 0 18 20" xmlns="http://www.w3.org/2000/svg">
        <path fill-rule="evenodd" clip-rule="evenodd" d="M11 2C11 0.9 10.1 0 9 0C7.9 0 7 0.9 7 2C7 3.1 7.9 4 9 4C10.1 4 11 3.1 11 2ZM12 7H18V5H0V7H6V20H8V14H10V20H12V7Z" />
    </svg>

    <svg id="icon-forum" viewBox="0 0 24 24">
        <path fill-rule="evenodd" clip-rule="evenodd" d="M16 2H3C2.45 2 2 2.45 2 3V17L6 13H16C16.55 13 17 12.55 17 12V3C17 2.45 16.55 2 16 2ZM15 4V11H5.17L4 12.17V4H15ZM19 6H21C21.55 6 22 6.45 22 7V22L18 18H7C6.45 18 6 17.55 6 17V15H19V6Z"/>
    </svg>

    <svg id="icon-thumb-up" viewBox="0 0 14 11" xmlns="http://www.w3.org/2000/svg">
        <path fill-rule="evenodd" clip-rule="evenodd" d="M12.2502 3.87492H8.56933L9.1235 1.3995L9.141 1.22617C9.141 1.00409 9.04183 0.798252 8.88433 0.652002L8.266 0.083252L4.42766 3.65284C4.21183 3.84784 4.0835 4.11867 4.0835 4.41659V9.83325C4.0835 10.4291 4.6085 10.9166 5.25016 10.9166H10.5002C10.9843 10.9166 11.3985 10.6458 11.5735 10.2558L13.3352 6.437C13.3877 6.31242 13.4168 6.18242 13.4168 6.04159V4.95825C13.4168 4.36242 12.8918 3.87492 12.2502 3.87492ZM12.2502 6.04151L10.5002 9.83318H5.25016V4.41651L7.78183 2.06568L7.13433 4.95818H12.2502V6.04151ZM2.91683 4.41658H0.583496V10.9166H2.91683V4.41658Z" />
    </svg>

    <svg id="icon-thumb-down" viewBox="0 0 14 12" xmlns="http://www.w3.org/2000/svg">
        <path fill-rule="evenodd" clip-rule="evenodd" d="M8.75016 0.166748H3.50016C3.016 0.166748 2.60183 0.458415 2.42683 0.878415L0.665163 4.99092C0.612663 5.12508 0.583496 5.26508 0.583496 5.41675V6.58342C0.583496 7.22508 1.1085 7.75008 1.75016 7.75008H5.431L4.87683 10.4159L4.85933 10.6026C4.85933 10.8417 4.9585 11.0634 5.116 11.2209L5.73433 11.8334L9.57266 7.98925C9.7885 7.77925 9.91683 7.48758 9.91683 7.16675V1.33341C9.91683 0.691748 9.39183 0.166748 8.75016 0.166748ZM8.75016 7.16675L6.2185 9.69841L6.866 6.58341H1.75016V5.41675L3.50016 1.33341H8.75016V7.16675ZM13.4168 0.166748H11.0835V7.16675H13.4168V0.166748Z" />
    </svg>

    <svg id="icon-thumb-up-solid" viewBox="0 0 14 11" xmlns="http://www.w3.org/2000/svg">
        <path clip-rule="evenodd" d="M8.56933 3.87516H12.2502C12.8918 3.87516 13.4168 4.36266 13.4168 4.9585V6.04183C13.4168 6.18266 13.3877 6.31266 13.3352 6.43725L11.5735 10.256C11.3985 10.646 10.9843 10.9168 10.5002 10.9168H5.25016C4.6085 10.9168 4.0835 10.4293 4.0835 9.8335V4.41683C4.0835 4.11891 4.21183 3.84808 4.42766 3.65308L8.266 0.0834961L8.88433 0.652246C9.04183 0.798496 9.14099 1.00433 9.14099 1.22641L9.1235 1.39975L8.56933 3.87516ZM0.583496 4.41683H2.91683V10.9168H0.583496V4.41683Z" fill-rule="evenodd" />
    </svg>

    <svg id="icon-thumb-down-solid" viewBox="0 0 14 12" xmlns="http://www.w3.org/2000/svg">
        <path clip-rule="evenodd" d="M3.50016 0.166504H8.75016C9.39183 0.166504 9.91683 0.691504 9.91683 1.33317V7.1665C9.91683 7.48734 9.7885 7.779 9.57266 7.989L5.73433 11.8332L5.116 11.2207C4.9585 11.0632 4.85933 10.8415 4.85933 10.6023L4.87683 10.4157L5.431 7.74984H1.75016C1.1085 7.74984 0.583496 7.22484 0.583496 6.58317V5.4165C0.583496 5.26484 0.612663 5.12484 0.665163 4.99067L2.42683 0.878171C2.60183 0.458171 3.016 0.166504 3.50016 0.166504ZM11.0835 0.166504H13.4168V7.1665H11.0835V0.166504Z" fill-rule="evenodd" />
    </svg>

    <svg id="icon-schedule" viewBox="0 0 18 18" xmlns="http://www.w3.org/2000/svg">
        <path fill-rule="evenodd" clip-rule="evenodd" d="M17 0H1C0.45 0 0 0.45 0 1V7C0 7.55 0.45 8 1 8H17C17.55 8 18 7.55 18 7V1C18 0.45 17.55 0 17 0ZM2 6H16V2H2V6ZM1 10H17C17.55 10 18 10.45 18 11V17C18 17.55 17.55 18 17 18H1C0.45 18 0 17.55 0 17V11C0 10.45 0.45 10 1 10ZM16 12H2V16H16V12ZM4 15.5C3.18 15.5 2.5 14.83 2.5 14C2.5 13.17 3.18 12.5 4 12.5C4.82 12.5 5.5 13.17 5.5 14C5.5 14.83 4.83 15.5 4 15.5ZM2.5 4C2.5 4.83 3.18 5.5 4 5.5C4.83 5.5 5.5 4.82 5.5 4C5.5 3.18 4.82 2.5 4 2.5C3.18 2.5 2.5 3.17 2.5 4Z" />
    </svg>

    <svg id="icon-edit" viewBox="0 0 20 18" xmlns="http://www.w3.org/2000/svg">
        <path fill-rule="evenodd" clip-rule="evenodd" d="M15.6588 0C15.4088 0 15.1488 0.1 14.9588 0.29L13.1288 2.12L16.8788 5.87L18.7088 4.04C19.0988 3.65 19.0988 3.02 18.7088 2.63L16.3688 0.29C16.1688 0.09 15.9188 0 15.6588 0ZM12.0588 6.02L12.9788 6.94L3.91878 16H2.99878V15.08L12.0588 6.02ZM0.998779 14.25L12.0588 3.19L15.8088 6.94L4.74878 18H0.998779V14.25Z" />
    </svg>

    <svg id="icon-clear" viewBox="0 0 24 24" xmlns="http://www.w3.org/2000/svg">
        <path d="M19 6.41L17.59 5L12 10.59L6.41 5L5 6.41L10.59 12L5 17.59L6.41 19L12 13.41L17.59 19L19 17.59L13.41 12L19 6.41Z" />
    </svg>

    <svg id="icon-view-details" viewBox="0 0 22 16" xmlns="http://www.w3.org/2000/svg">
        <path fill-rule="evenodd" clip-rule="evenodd" d="M0 8C1.73 3.61 6 0.5 11 0.5C16 0.5 20.27 3.61 22 8C20.27 12.39 16 15.5 11 15.5C6 15.5 1.73 12.39 0 8ZM19.82 8C18.17 4.63 14.79 2.5 11 2.5C7.21 2.5 3.83 4.63 2.18 8C3.83 11.37 7.2 13.5 11 13.5C14.8 13.5 18.17 11.37 19.82 8ZM11 5.5C12.38 5.5 13.5 6.62 13.5 8C13.5 9.38 12.38 10.5 11 10.5C9.62 10.5 8.5 9.38 8.5 8C8.5 6.62 9.62 5.5 11 5.5ZM6.5 8C6.5 5.52 8.52 3.5 11 3.5C13.48 3.5 15.5 5.52 15.5 8C15.5 10.48 13.48 12.5 11 12.5C8.52 12.5 6.5 10.48 6.5 8Z" />
        <path fill-rule="evenodd" clip-rule="evenodd" d="M0 8C1.73 3.61 6 0.5 11 0.5C16 0.5 20.27 3.61 22 8C20.27 12.39 16 15.5 11 15.5C6 15.5 1.73 12.39 0 8ZM19.82 8C18.17 4.63 14.79 2.5 11 2.5C7.21 2.5 3.83 4.63 2.18 8C3.83 11.37 7.2 13.5 11 13.5C14.8 13.5 18.17 11.37 19.82 8ZM11 5.5C12.38 5.5 13.5 6.62 13.5 8C13.5 9.38 12.38 10.5 11 10.5C9.62 10.5 8.5 9.38 8.5 8C8.5 6.62 9.62 5.5 11 5.5ZM6.5 8C6.5 5.52 8.52 3.5 11 3.5C13.48 3.5 15.5 5.52 15.5 8C15.5 10.48 13.48 12.5 11 12.5C8.52 12.5 6.5 10.48 6.5 8Z" />
        <path fill-rule="evenodd" clip-rule="evenodd" d="M0 8C1.73 3.61 6 0.5 11 0.5C16 0.5 20.27 3.61 22 8C20.27 12.39 16 15.5 11 15.5C6 15.5 1.73 12.39 0 8ZM19.82 8C18.17 4.63 14.79 2.5 11 2.5C7.21 2.5 3.83 4.63 2.18 8C3.83 11.37 7.2 13.5 11 13.5C14.8 13.5 18.17 11.37 19.82 8ZM11 5.5C12.38 5.5 13.5 6.62 13.5 8C13.5 9.38 12.38 10.5 11 10.5C9.62 10.5 8.5 9.38 8.5 8C8.5 6.62 9.62 5.5 11 5.5ZM6.5 8C6.5 5.52 8.52 3.5 11 3.5C13.48 3.5 15.5 5.52 15.5 8C15.5 10.48 13.48 12.5 11 12.5C8.52 12.5 6.5 10.48 6.5 8Z" />
        <path fill-rule="evenodd" clip-rule="evenodd" d="M0 8C1.73 3.61 6 0.5 11 0.5C16 0.5 20.27 3.61 22 8C20.27 12.39 16 15.5 11 15.5C6 15.5 1.73 12.39 0 8ZM19.82 8C18.17 4.63 14.79 2.5 11 2.5C7.21 2.5 3.83 4.63 2.18 8C3.83 11.37 7.2 13.5 11 13.5C14.8 13.5 18.17 11.37 19.82 8ZM11 5.5C12.38 5.5 13.5 6.62 13.5 8C13.5 9.38 12.38 10.5 11 10.5C9.62 10.5 8.5 9.38 8.5 8C8.5 6.62 9.62 5.5 11 5.5ZM6.5 8C6.5 5.52 8.52 3.5 11 3.5C13.48 3.5 15.5 5.52 15.5 8C15.5 10.48 13.48 12.5 11 12.5C8.52 12.5 6.5 10.48 6.5 8Z" />
    </svg>

    <svg id="icon-in-progress" viewBox="0 0 22 18" xmlns="http://www.w3.org/2000/svg">
        <path fill-rule="evenodd" clip-rule="evenodd" d="M3.5 9C3.5 4.03 7.53 0 12.5 0C17.47 0 21.5 4.03 21.5 9C21.5 13.97 17.47 18 12.5 18C10.44 18 8.54 17.3 7.02 16.14L8.44 14.7C9.59 15.51 10.99 16 12.5 16C16.37 16 19.5 12.87 19.5 9C19.5 5.13 16.37 2 12.5 2C8.63 2 5.5 5.13 5.5 9H8.5L4.5 13L0.5 9H3.5ZM12.5 7C13.6 7 14.5 7.9 14.5 9C14.5 10.1 13.6 11 12.5 11C11.4 11 10.5 10.1 10.5 9C10.5 7.9 11.4 7 12.5 7Z" />
    </svg>

    <svg id="icon-success" viewBox="0 0 18 14" xmlns="http://www.w3.org/2000/svg">
        <path d="M5.6 10.6L1.4 6.4L0 7.8L5.6 13.4L17.6 1.4L16.2 0L5.6 10.6Z" />
    </svg>


    <svg id="icon-stats" viewBox="0 0 22 13">
        <path d="M22 2.09016C22 3.19356 21.1 4.09634 20 4.09634C19.82 4.09634 19.65 4.07628 19.49 4.02612L15.93 7.58709C15.98 7.74758 16 7.92814 16 8.10869C16 9.21209 15.1 10.1149 14 10.1149C12.9 10.1149 12 9.21209 12 8.10869C12 7.92814 12.02 7.74758 12.07 7.58709L9.52 5.02921C9.36 5.07937 9.18 5.09943 9 5.09943C8.82 5.09943 8.64 5.07937 8.48 5.02921L3.93 9.6033C3.98 9.76379 4 9.93431 4 10.1149C4 11.2183 3.1 12.121 2 12.121C0.9 12.121 0 11.2183 0 10.1149C0 9.01147 0.9 8.10869 2 8.10869C2.18 8.10869 2.35 8.12875 2.51 8.17891L7.07 3.61486C7.02 3.45436 7 3.27381 7 3.09325C7 1.98985 7.9 1.08707 9 1.08707C10.1 1.08707 11 1.98985 11 3.09325C11 3.27381 10.98 3.45436 10.93 3.61486L13.48 6.17273C13.64 6.12258 13.82 6.10252 14 6.10252C14.18 6.10252 14.36 6.12258 14.52 6.17273L18.07 2.60174C18.02 2.44124 18 2.27072 18 2.09016C18 0.986764 18.9 0.0839844 20 0.0839844C21.1 0.0839844 22 0.986764 22 2.09016Z" />
    </svg>

    <svg id="icon-info" viewBox="0 0 20 20">
        <path fill-rule="evenodd" clip-rule="evenodd" d="M0 10C0 4.48 4.48 0 10 0C15.52 0 20 4.48 20 10C20 15.52 15.52 20 10 20C4.48 20 0 15.52 0 10ZM11 14V16H9V14H11ZM10 18C5.59 18 2 14.41 2 10C2 5.59 5.59 2 10 2C14.41 2 18 5.59 18 10C18 14.41 14.41 18 10 18ZM6 8C6 5.79 7.79 4 10 4C12.21 4 14 5.79 14 8C14 9.28292 13.21 9.97332 12.4408 10.6455C11.711 11.2833 11 11.9046 11 13H9C9 11.1787 9.94212 10.4566 10.7704 9.82168C11.4202 9.32361 12 8.87922 12 8C12 6.9 11.1 6 10 6C8.9 6 8 6.9 8 8H6Z" />
    </svg>

    <svg viewBox="0 0 53 43" id="icon-tour-button">
        <path fill-rule="evenodd" clip-rule="evenodd" d="M26.5 0.125L0.375 14.375L9.875 19.5525V33.8025L26.5 42.875L43.125 33.8025V19.5525L47.875 16.9638V33.375H52.625V14.375L26.5 0.125ZM42.6974 14.375L26.4999 23.21L10.3024 14.375L26.4999 5.53999L42.6974 14.375ZM26.5 37.46L38.375 30.9762V22.1412L26.5 28.625L14.625 22.1412V30.9762L26.5 37.46Z" />
    </svg>

    <svg id="icon-gov-user" viewBox="0 0 24 24">
        <path d="M10,0.3c5.3,0,9.7,4.3,9.7,9.7s-4.3,9.7-9.7,9.7S0.3,15.3,0.3,10S4.7,0.3,10,0.3z M10,13.3c-2.3,0-4.3,1.2-5.4,3.1
            c1.5,1.2,3.3,2,5.4,2c2.1,0,4-0.8,5.4-2C14.3,14.5,12.3,13.3,10,13.3z M10,1.6c-4.6,0-8.4,3.8-8.4,8.4c0,2.1,0.8,4,2.1,5.5
            C5,13.3,7.4,12,10,12c2.6,0,5,1.3,6.3,3.4c1.3-1.5,2-3.4,2-5.5C18.4,5.4,14.6,1.6,10,1.6z M10,2.4c2.3,0,4.2,1.9,4.2,4.2
            c0,2.3-1.9,4.2-4.2,4.2c-2.3,0-4.2-1.9-4.2-4.2C5.8,4.3,7.7,2.4,10,2.4L10,2.4z M10,3.7C8.4,3.7,7.1,5,7.1,6.6
            c0,1.6,1.3,2.9,2.9,2.9s2.9-1.3,2.9-2.9C12.9,5,11.6,3.7,10,3.7z"/>    
    </svg>
    <svg id="icon-file-csv" viewBox="0 0 29 31">
        <path d="M26.4902 11.0885H25.7459V7.49655C25.7459 7.47399 25.7423 7.4516 25.7394 7.4287C25.7382 7.28622 25.6928 7.146 25.5951 7.03519L19.6182 0.207895C19.6164 0.205973 19.6146 0.205407 19.6134 0.203655C19.5778 0.163681 19.5362 0.130606 19.4923 0.10211C19.4793 0.0932333 19.4662 0.0859398 19.4525 0.07842C19.4145 0.0577832 19.3741 0.0404256 19.3326 0.0279304C19.3213 0.0249904 19.3113 0.0203542 19.3 0.017301C19.2548 0.00667164 19.2079 0 19.1605 0H4.47131C3.80053 0 3.25566 0.545548 3.25566 1.21571V11.0882H2.51143C1.55184 11.0882 0.773804 11.866 0.773804 12.8257V21.8612C0.773804 22.8205 1.55184 23.599 2.51143 23.599H3.25566V29.7843C3.25566 30.4546 3.80053 31 4.47131 31H24.5302C25.2004 31 25.7459 30.4546 25.7459 29.7843V23.5991H26.4902C27.4494 23.5991 28.2276 22.8209 28.2276 21.8616V12.826C28.2277 11.866 27.4494 11.0885 26.4902 11.0885ZM4.47131 1.21571H18.5526V7.43537C18.5526 7.77122 18.825 8.04323 19.1605 8.04323H24.5302V11.0885H4.47131V1.21571ZM13.6228 17.707C12.1144 17.1817 11.1315 16.347 11.1315 15.0276C11.1315 13.4782 12.4241 12.2929 14.5654 12.2929C15.5891 12.2929 16.3433 12.5084 16.8817 12.7513L16.4243 14.4079C16.0607 14.2322 15.4143 13.9764 14.5251 13.9764C13.6365 13.9764 13.2055 14.3806 13.2055 14.8519C13.2055 15.4313 13.717 15.6869 14.8893 16.1315C16.4917 16.724 17.2459 17.5585 17.2459 18.8383C17.2459 20.3597 16.0743 21.6531 13.5826 21.6531C12.5458 21.6531 11.5218 21.3831 11.0102 21.1008L11.4275 19.4037C11.98 19.6872 12.8282 19.9694 13.704 19.9694C14.6465 19.9694 15.1451 19.5788 15.1451 18.9858C15.1448 18.4199 14.7135 18.097 13.6228 17.707ZM2.92875 17.114C2.92875 14.0167 5.13797 12.2929 7.88465 12.2929C8.94884 12.2929 9.75685 12.5084 10.1207 12.6971L9.70279 14.3264C9.28553 14.152 8.70589 13.9906 7.97885 13.9906C6.34927 13.9906 5.08369 14.973 5.08369 16.9928C5.08369 18.811 6.16082 19.9554 7.99298 19.9554C8.61192 19.9554 9.29888 19.821 9.70279 19.6593L10.0128 21.2619C9.63557 21.4508 8.78736 21.6531 7.68292 21.6531C4.54498 21.6532 2.92875 19.6997 2.92875 17.114ZM24.5302 29.4548H4.47131V23.5991H24.5302V29.4548ZM23.1724 21.5179H20.7751L17.8662 12.4413H20.1157L21.2197 16.28C21.5295 17.3568 21.8122 18.3938 22.0282 19.5252H22.0683C22.2971 18.4341 22.5796 17.3568 22.8895 16.3198L24.0479 12.4413H26.2302L23.1724 21.5179Z"/>
    </svg>
    <svg id="icon-file-rdf" viewBox="0 0 28 31">
        <path fill-rule="evenodd" d="M25.7164 11.0885H24.9721V7.49655C24.9721 7.47784 24.9696 7.45924 24.9671 7.44038L24.9656 7.4287C24.9644 7.28622 24.919 7.146 24.8213 7.03519L18.8444 0.207895C18.8436 0.20701 18.8427 0.206412 18.8419 0.205854L18.8419 0.205848C18.841 0.205196 18.8402 0.204597 18.8396 0.203655C18.804 0.163681 18.7624 0.130606 18.7185 0.10211C18.7055 0.0932333 18.6924 0.0859398 18.6787 0.07842C18.6407 0.0577832 18.6003 0.0404256 18.5588 0.0279304C18.553 0.0264202 18.5475 0.0244623 18.5421 0.0225014L18.542 0.0224931C18.5369 0.0206395 18.5317 0.0187836 18.5262 0.017301C18.481 0.00667164 18.4341 0 18.3867 0H3.69751C3.02673 0 2.48185 0.545548 2.48185 1.21571V11.0882H1.73763C0.778039 11.0882 0 11.866 0 12.8257V21.8612C0 22.8205 0.778039 23.599 1.73763 23.599H2.48185V29.7843C2.48185 30.4546 3.02673 31 3.69751 31H23.7564C24.4266 31 24.9721 30.4546 24.9721 29.7843V23.5991H25.7164C26.6756 23.5991 27.4538 22.8209 27.4538 21.8616V12.826C27.4539 11.866 26.6756 11.0885 25.7164 11.0885ZM3.69751 1.21571H17.7788V7.43537C17.7788 7.77122 18.0512 8.04323 18.3867 8.04323H23.7564V11.0885H3.69751V1.21571ZM23.7564 29.4548H3.69751V23.5991H23.7564V29.4548ZM7.49316 18.3975H6.32617V21H4.86133V13.8906H7.50293C8.34277 13.8906 8.99056 14.0778 9.44629 14.4521C9.90202 14.8265 10.1299 15.3555 10.1299 16.0391C10.1299 16.5241 10.0241 16.9294 9.8125 17.2549C9.60417 17.5771 9.28678 17.8343 8.86035 18.0264L10.3984 20.9316V21H8.82617L7.49316 18.3975ZM6.32617 17.2109H7.50781C7.87565 17.2109 8.16048 17.1182 8.3623 16.9326C8.56413 16.7438 8.66504 16.485 8.66504 16.1562C8.66504 15.821 8.56901 15.5573 8.37695 15.3652C8.18815 15.1732 7.89681 15.0771 7.50293 15.0771H6.32617V17.2109ZM11.248 21V13.8906H13.4355C14.0605 13.8906 14.6188 14.0322 15.1104 14.3154C15.6051 14.5954 15.9909 14.9958 16.2676 15.5166C16.5443 16.0342 16.6826 16.6234 16.6826 17.2842V17.6113C16.6826 18.2721 16.5459 18.8597 16.2725 19.374C16.0023 19.8883 15.6198 20.2871 15.125 20.5703C14.6302 20.8535 14.0719 20.9967 13.4502 21H11.248ZM12.7129 15.0771V19.8232H13.4209C13.9938 19.8232 14.4316 19.6361 14.7344 19.2617C15.0371 18.8874 15.1917 18.3519 15.1982 17.6553V17.2793C15.1982 16.5566 15.0485 16.0098 14.749 15.6387C14.4495 15.2643 14.0117 15.0771 13.4355 15.0771H12.7129ZM19.2168 18.0947H22.0293V16.9131H19.2168V15.0771H22.3809V13.8906H17.752V21H19.2168V18.0947Z" />
    </svg>

    <svg id="icon-file-xml" viewBox="0 0 29 31" >
        <path d="M26.2279 11.0886H25.4687V7.49689C25.4687 7.47432 25.4651 7.45192 25.4621 7.42907C25.4609 7.28645 25.4146 7.14636 25.315 7.03555L19.2192 0.207736C19.2173 0.205991 19.2155 0.205372 19.2143 0.203627C19.1779 0.163836 19.1356 0.130573 19.0908 0.102095C19.0775 0.0932024 19.0642 0.0859421 19.0503 0.0783441C19.0115 0.057745 18.9703 0.040354 18.928 0.0279157C18.9165 0.0249328 18.9061 0.0203177 18.8947 0.0172222C18.8486 0.00669752 18.8008 0 18.7524 0H3.77103C3.08693 0 2.53117 0.545538 2.53117 1.21574V11.0883H1.77215C0.793515 11.0883 0 11.866 0 12.8257V21.8613C0 22.8205 0.793515 23.599 1.77215 23.599H2.53122V29.7843C2.53122 30.4544 3.08698 31 3.77109 31H24.2289C24.9124 31 25.4688 30.4545 25.4688 29.7843V23.599H26.228C27.2063 23.599 28 22.8208 28 21.8616V12.826C27.9999 11.8663 27.2063 11.0886 26.2279 11.0886ZM3.77103 1.21597H18.1324V7.43565C18.1324 7.77149 18.4103 8.04349 18.7524 8.04349H24.2289V11.0888H3.77103V1.21597ZM19.4032 21.0792H17.563L17.4393 17.9545C17.4023 16.9733 17.3647 15.7866 17.3647 14.5995H17.3284C17.0693 15.6416 16.723 16.8038 16.4021 17.7604L15.3893 20.946H13.9188L13.0294 17.7853C12.7582 16.8288 12.4743 15.6659 12.2761 14.5998H12.2514C12.2024 15.7021 12.1649 16.9614 12.103 17.9788L11.9551 21.0792H10.2134L10.7449 12.9164H13.2521L14.0676 15.6416C14.3268 16.5856 14.5865 17.6028 14.7712 18.5594H14.8087C15.043 17.6155 15.3275 16.5376 15.5994 15.6291L16.4887 12.9164H18.9466L19.4032 21.0792ZM2.20926 21.0792L4.61753 16.9489L2.29599 12.9164H4.45744L5.18575 14.4059C5.43349 14.9027 5.61815 15.3023 5.81659 15.7618H5.84081C6.03816 15.2416 6.19842 14.8785 6.40868 14.4059L7.11322 12.9164H9.26198L6.91485 16.9009L9.38563 21.0792H7.21207L6.45816 19.6014C6.14957 19.0325 5.95205 18.6086 5.71717 18.1358H5.69231C5.51959 18.6086 5.30922 19.0325 5.04999 19.6014L4.35877 21.0792H2.20926ZM24.2289 29.4552H3.77103V23.599H24.2289V29.4552H24.2289ZM26.0499 21.0792H20.8489V12.9164H22.7393V19.5293H26.0503V21.0792H26.0499Z" />
    </svg>
    <svg id="icon-filter-map" viewBox="0 0 32 32">
        <path fill="none" stroke-linejoin="round" stroke-linecap="round" stroke-miterlimit="4" stroke-width="2.6667" d="M12 6.667l-8-2.667v21.333l8 2.667M12 6.667l8-2.667M12 6.667v21.333M20 4l8 2.667v21.333l-8-2.667M20 4v21.333M20 25.333l-8 2.667"></path>
    </svg>
    <svg id="icon-refresh-map" width="20" viewBox="0 0 27 27" >
        <path d="M26.5781 16.4801H25.5938H22.0626H18.0273L20.76 19.1725C19.0859 21.5841 16.34 23.1565 13.2359 23.1565C8.25078 23.1565 4.19955 19.0961 4.01649 14.0193H0.586084C0.769145 21.0391 6.35915 26.6719 13.2359 26.6719C17.3083 26.6719 20.9245 24.6907 23.2406 21.6223L26.5781 24.9142V16.4801ZM5.7118 8.19037C7.38057 5.76778 10.1238 4.18178 13.2359 4.18178C18.3377 4.18178 22.4738 8.43018 22.4738 13.6705C22.4738 13.7877 22.4606 13.9021 22.4579 14.022H25.8883C25.891 13.9049 25.8963 13.7904 25.8963 13.6705C25.8963 6.48992 20.2293 0.671875 13.2385 0.671875C9.16078 0.671875 5.53404 2.65301 3.22057 5.73235L0.578125 3.12717V11.5613H9.12894L5.7118 8.19037Z" fill="#DC3545"/>
    </svg>
</svg>
